<?xml version="1.0" standalone="no"?><svg xmlns:xlink="http://www.w3.org/1999/xlink" xmlns="http://www.w3.org/2000/svg" viewBox="0 0 1000 1000" preserveAspectRatio="xMaxYMax slice"><g transform="scale(1.4749262536873156)"><rect x="0" y="0" width="678" height="678" fill="#2d435b"/><rect x="0" y="0" width="42.38" height="42.38" fill="#2f465d"/><polygon points="42.38,0 42.38,42.38 0,42.38" fill="#394e64"/><rect x="42.38" y="0" width="42.38" height="42.38" fill="#505261"/><rect x="42.38" y="0" width="42.38" height="42.38" fill="#3a4b5c"/><rect x="84.75" y="0" width="42.38" height="42.38" fill="#9f8864"/><polygon points="84.75,0 127.13,0 84.75,42.38" fill="#7e6768"/><rect x="127.13" y="0" width="42.38" height="42.38" fill="#3c5465"/><rect x="127.13" y="0" width="42.38" height="42.38" fill="#516c74"/><rect x="169.5" y="0" width="42.38" height="42.38" fill="#6e818e"/><path d="M 169.5 42.38 A 42.38 42.38 0 0 0 211.88 0 L 169.5 0" fill="#515361"/><rect x="211.88" y="0" width="42.38" height="42.38" fill="#395063"/><polygon points="211.88,0 254.26,0 254.26,42.38" fill="#657889"/><rect x="254.25" y="0" width="42.38" height="42.38" fill="#344a61"/><rect x="254.25" y="0" width="42.38" height="42.38" fill="#435c6a"/><rect x="296.63" y="0" width="42.38" height="42.38" fill="#474e5f"/><path d="M 296.63 0 A 42.38 42.38 0 0 1  339.01 42.38 L 296.63 0 A 42.38 42.38 0 0 0 339.01 42.38" fill="#4f6a73"/><rect x="339" y="0" width="42.38" height="42.38" fill="#516d75"/><rect x="339" y="0" width="42.38" height="42.38" fill="#ca8874"/><rect x="381.38" y="0" width="42.38" height="42.38" fill="#6d5f65"/><rect x="381.38" y="0" width="42.38" height="42.38" fill="#435c6a"/><rect x="423.75" y="0" width="42.38" height="42.38" fill="#425b6a"/><rect x="423.75" y="0" width="42.38" height="42.38" fill="#758896"/><rect x="466.13" y="0" width="42.38" height="42.38" fill="#97a7ae"/><rect x="466.13" y="0" width="42.38" height="42.38" fill="#787161"/><rect x="508.5" y="0" width="42.38" height="42.38" fill="#546879"/><path d="M 508.5 42.38 A 42.38 42.38 0 0 1  550.88 0 L 550.88 42.38" fill="#3f5469"/><rect x="550.88" y="0" width="42.38" height="42.38" fill="#cda468"/><rect x="550.88" y="0" width="42.38" height="42.38" fill="#abbabd"/><rect x="593.25" y="0" width="42.38" height="42.38" fill="#566a7b"/><rect x="593.25" y="0" width="42.38" height="42.38" fill="#55697b"/><rect x="635.63" y="0" width="42.38" height="42.38" fill="#a0b0b5"/><polygon points="635.63,0 678.01,0 635.63,42.38" fill="#515361"/><rect x="0" y="42.38" width="42.38" height="42.38" fill="#627586"/><path d="M 0 42.38 A 42.38 42.38 0 0 1 42.38 84.76 L 0 84.76" fill="#516577"/><rect x="42.38" y="42.38" width="42.38" height="42.38" fill="#6e6b60"/><rect x="42.38" y="42.38" width="42.38" height="42.38" fill="#9babb1"/><rect x="84.75" y="42.38" width="42.38" height="42.38" fill="#6e8190"/><polygon points="84.75,42.38 127.13,84.76 84.75,84.76" fill="#7e7461"/><rect x="127.13" y="42.38" width="42.38" height="42.38" fill="#a2b2b6"/><path d="M 127.13 42.38 A 42.38 42.38 0 0 0 169.51 84.76 L 169.51 42.38" fill="#bc8271"/><rect x="169.5" y="42.38" width="42.38" height="42.38" fill="#5d7183"/><rect x="169.5" y="42.38" width="42.38" height="42.38" fill="#bd9b66"/><rect x="211.88" y="42.38" width="42.38" height="42.38" fill="#95a6ad"/><polygon points="211.88,42.38 254.26,42.38 211.88,84.76" fill="#c28472"/><rect x="254.25" y="42.38" width="42.38" height="42.38" fill="#526678"/><rect x="254.25" y="42.38" width="42.38" height="42.38" fill="#657989"/><rect x="296.63" y="42.38" width="42.38" height="42.38" fill="#5e7b7d"/><path d="M 296.63 84.76 A 42.38 42.38 0 0 0 339.01 42.38 L 296.63 42.38" fill="#9a736c"/><rect x="339" y="42.38" width="42.38" height="42.38" fill="#385063"/><polygon points="381.38,42.38 381.38,84.76 339,84.76" fill="#2f445b"/><rect x="381.38" y="42.38" width="42.38" height="42.38" fill="#6b7e8e"/><path d="M 381.38 42.38 A 42.38 42.38 0 0 0 423.76 84.76 L 423.76 42.38" fill="#566a7c"/><rect x="423.75" y="42.38" width="42.38" height="42.38" fill="#657989"/><path d="M 423.75 84.76 A 42.38 42.38 0 0 0 466.13 42.38 L 423.75 42.38" fill="#918063"/><rect x="466.13" y="42.38" width="42.38" height="42.38" fill="#577378"/><rect x="466.13" y="42.38" width="42.38" height="42.38" fill="#7e909d"/><rect x="508.5" y="42.38" width="42.38" height="42.38" fill="#494f5f"/><path d="M 508.5 42.38 A 42.38 42.38 0 0 1  550.88 84.76 L 508.5 42.38 A 42.38 42.38 0 0 0 550.88 84.76" fill="#a88e65"/><rect x="550.88" y="42.38" width="42.38" height="42.38" fill="#a88e65"/><polygon points="593.26,42.38 593.26,84.76 550.88,84.76" fill="#635b64"/><rect x="593.25" y="42.38" width="42.38" height="42.38" fill="#536f76"/><polygon points="593.25,42.38 635.63,42.38 635.63,84.76" fill="#49545d"/><rect x="635.63" y="42.38" width="42.38" height="42.38" fill="#2e435b"/><polygon points="635.63,42.38 678.01,42.38 635.63,84.76" fill="#6e8190"/><rect x="0" y="84.75" width="42.38" height="42.38" fill="#b39466"/><path d="M 0 127.13 A 42.38 42.38 0 0 0 42.38 84.75 L 0 84.75" fill="#4c6174"/><rect x="42.38" y="84.75" width="42.38" height="42.38" fill="#e4b26a"/><polygon points="84.76,84.75 84.76,127.13 42.38,127.13" fill="#586c7e"/><rect x="84.75" y="84.75" width="42.38" height="42.38" fill="#536f76"/><polygon points="84.75,84.75 127.13,127.13 84.75,127.13" fill="#374e62"/><rect x="127.13" y="84.75" width="42.38" height="42.38" fill="#32485e"/><polygon points="127.13,84.75 169.51,84.75 169.51,127.13" fill="#60625f"/><rect x="169.5" y="84.75" width="42.38" height="42.38" fill="#aa7a6f"/><polygon points="211.88,84.75 211.88,127.13 169.5,127.13" fill="#8c7d63"/><rect x="211.88" y="84.75" width="42.38" height="42.38" fill="#35485c"/><polygon points="211.88,84.75 254.26,84.75 211.88,127.13" fill="#738594"/><rect x="254.25" y="84.75" width="42.38" height="42.38" fill="#5e7c7e"/><rect x="254.25" y="84.75" width="42.38" height="42.38" fill="#e4b36a"/><rect x="296.63" y="84.75" width="42.38" height="42.38" fill="#5c605f"/><polygon points="296.63,84.75 339.01,127.13 296.63,127.13" fill="#59757a"/><rect x="339" y="84.75" width="42.38" height="42.38" fill="#516577"/><path d="M 339 84.75 A 42.38 42.38 0 0 1  381.38 127.13 L 339 84.75 A 42.38 42.38 0 0 0 381.38 127.13" fill="#61635f"/><rect x="381.38" y="84.75" width="42.38" height="42.38" fill="#4f6a73"/><polygon points="381.38,84.75 423.76,84.75 423.76,127.13" fill="#d38c75"/><rect x="423.75" y="84.75" width="42.38" height="42.38" fill="#899aa3"/><path d="M 423.75 127.13 A 42.38 42.38 0 0 0 466.13 84.75 L 423.75 84.75" fill="#41566b"/><rect x="466.13" y="84.75" width="42.38" height="42.38" fill="#d18b75"/><polygon points="466.13,84.75 508.51,127.13 466.13,127.13" fill="#dcad69"/><rect x="508.5" y="84.75" width="42.38" height="42.38" fill="#394a5c"/><polygon points="508.5,84.75 550.88,84.75 550.88,127.13" fill="#4f6477"/><rect x="550.88" y="84.75" width="42.38" height="42.38" fill="#806768"/><polygon points="550.88,84.75 593.26,127.13 550.88,127.13" fill="#7c8f9c"/><rect x="593.25" y="84.75" width="42.38" height="42.38" fill="#8395a1"/><polygon points="593.25,84.75 635.63,127.13 593.25,127.13" fill="#32495f"/><rect x="635.63" y="84.75" width="42.38" height="42.38" fill="#6a7d8d"/><path d="M 635.63 84.75 A 42.38 42.38 0 0 1 678.01 127.13 L 635.63 127.13" fill="#4b5060"/><rect x="0" y="127.13" width="42.38" height="42.38" fill="#6e5f65"/><rect x="0" y="127.13" width="42.38" height="42.38" fill="#3b5365"/><rect x="42.38" y="127.13" width="42.38" height="42.38" fill="#4a5e73"/><path d="M 42.38 127.13 A 42.38 42.38 0 0 1  84.76 169.51 L 42.38 127.13 A 42.38 42.38 0 0 0 84.76 169.51" fill="#726d60"/><rect x="84.75" y="127.13" width="42.38" height="42.38" fill="#697b8a"/><polygon points="127.13,127.13 127.13,169.51 84.75,169.51" fill="#526679"/><rect x="127.13" y="127.13" width="42.38" height="42.38" fill="#7b8e9b"/><polygon points="127.13,127.13 169.51,127.13 127.13,169.51" fill="#374c63"/><rect x="169.5" y="127.13" width="42.38" height="42.38" fill="#5d7b7d"/><rect x="169.5" y="127.13" width="42.38" height="42.38" fill="#435c6a"/><rect x="211.88" y="127.13" width="42.38" height="42.38" fill="#768894"/><path d="M 211.88 127.13 A 42.38 42.38 0 0 0 254.26 169.51 L 254.26 127.13" fill="#31475f"/><rect x="254.25" y="127.13" width="42.38" height="42.38" fill="#d5a968"/><rect x="254.25" y="127.13" width="42.38" height="42.38" fill="#697c8a"/><rect x="296.63" y="127.13" width="42.38" height="42.38" fill="#43586d"/><path d="M 296.63 169.51 A 42.38 42.38 0 0 0 339.01 127.13 L 296.63 127.13" fill="#435c6a"/><rect x="339" y="127.13" width="42.38" height="42.38" fill="#736e61"/><rect x="339" y="127.13" width="42.38" height="42.38" fill="#dd9077"/><rect x="381.38" y="127.13" width="42.38" height="42.38" fill="#567278"/><rect x="381.38" y="127.13" width="42.38" height="42.38" fill="#b59666"/><rect x="423.75" y="127.13" width="42.38" height="42.38" fill="#c6a067"/><rect x="423.75" y="127.13" width="42.38" height="42.38" fill="#635b63"/><rect x="466.13" y="127.13" width="42.38" height="42.38" fill="#ff9f7c"/><rect x="466.13" y="127.13" width="42.38" height="42.38" fill="#30465d"/><rect x="508.5" y="127.13" width="42.38" height="42.38" fill="#5e7b7d"/><polygon points="508.5,127.13 550.88,127.13 550.88,169.51" fill="#41566c"/><rect x="550.88" y="127.13" width="42.38" height="42.38" fill="#4b555d"/><path d="M 550.88 127.13 A 42.38 42.38 0 0 0 593.26 169.51 L 593.26 127.13" fill="#645b64"/><rect x="593.25" y="127.13" width="42.38" height="42.38" fill="#2e445c"/><rect x="593.25" y="127.13" width="42.38" height="42.38" fill="#7a8c97"/><rect x="635.63" y="127.13" width="42.38" height="42.38" fill="#6b6960"/><path d="M 635.63 169.51 A 42.38 42.38 0 0 1  678.01 127.13 L 678.01 169.51" fill="#b49566"/><rect x="0" y="169.5" width="42.38" height="42.38" fill="#a3b3b7"/><rect x="0" y="169.5" width="42.38" height="42.38" fill="#354c60"/><rect x="42.38" y="169.5" width="42.38" height="42.38" fill="#bdcbcc"/><rect x="42.38" y="169.5" width="42.38" height="42.38" fill="#5b6f81"/><rect x="84.75" y="169.5" width="42.38" height="42.38" fill="#334860"/><polygon points="127.13,169.5 127.13,211.88 84.75,211.88" fill="#d2a768"/><rect x="127.13" y="169.5" width="42.38" height="42.38" fill="#906e6b"/><polygon points="127.13,169.5 169.51,169.5 127.13,211.88" fill="#776367"/><rect x="169.5" y="169.5" width="42.38" height="42.38" fill="#7b6567"/><polygon points="169.5,169.5 211.88,169.5 211.88,211.88" fill="#394e65"/><rect x="211.88" y="169.5" width="42.38" height="42.38" fill="#a4b4b8"/><polygon points="254.26,169.5 254.26,211.88 211.88,211.88" fill="#577479"/><rect x="254.25" y="169.5" width="42.38" height="42.38" fill="#41566b"/><rect x="254.25" y="169.5" width="42.38" height="42.38" fill="#c38573"/><rect x="296.63" y="169.5" width="42.38" height="42.38" fill="#767061"/><polygon points="296.63,169.5 339.01,169.5 296.63,211.88" fill="#4f6376"/><rect x="339" y="169.5" width="42.38" height="42.38" fill="#b9c7c8"/><path d="M 339 211.88 A 42.38 42.38 0 0 1  381.38 169.5 L 339 211.88 A 42.38 42.38 0 0 0 381.38 169.5" fill="#c88773"/><rect x="381.38" y="169.5" width="42.38" height="42.38" fill="#826868"/><rect x="381.38" y="169.5" width="42.38" height="42.38" fill="#3f5868"/><rect x="423.75" y="169.5" width="42.38" height="42.38" fill="#3b5465"/><path d="M 423.75 211.88 A 42.38 42.38 0 0 0 466.13 169.5 L 423.75 169.5" fill="#445d6b"/><rect x="466.13" y="169.5" width="42.38" height="42.38" fill="#df9177"/><rect x="466.13" y="169.5" width="42.38" height="42.38" fill="#635b64"/><rect x="508.5" y="169.5" width="42.38" height="42.38" fill="#3e5369"/><polygon points="508.5,169.5 550.88,211.88 508.5,211.88" fill="#344a61"/><rect x="550.88" y="169.5" width="42.38" height="42.38" fill="#495e72"/><polygon points="550.88,169.5 593.26,169.5 593.26,211.88" fill="#577379"/><rect x="593.25" y="169.5" width="42.38" height="42.38" fill="#628080"/><path d="M 593.25 169.5 A 42.38 42.38 0 0 1  635.63 211.88 L 593.25 169.5 A 42.38 42.38 0 0 0 635.63 211.88" fill="#768897"/><rect x="635.63" y="169.5" width="42.38" height="42.38" fill="#ca8874"/><polygon points="678.01,169.5 678.01,211.88 635.63,211.88" fill="#adbcbf"/><rect x="0" y="211.88" width="42.38" height="42.38" fill="#46525d"/><path d="M 0 254.26 A 42.38 42.38 0 0 1  42.38 211.88 L 42.38 254.26" fill="#adbcbf"/><rect x="42.38" y="211.88" width="42.38" height="42.38" fill="#344a61"/><rect x="42.38" y="211.88" width="42.38" height="42.38" fill="#47606d"/><rect x="84.75" y="211.88" width="42.38" height="42.38" fill="#948263"/><polygon points="84.75,211.88 127.13,211.88 84.75,254.26" fill="#485d71"/><rect x="127.13" y="211.88" width="42.38" height="42.38" fill="#30465d"/><polygon points="127.13,211.88 169.51,211.88 169.51,254.26" fill="#5a6e80"/><rect x="169.5" y="211.88" width="42.38" height="42.38" fill="#424c5e"/><polygon points="169.5,211.88 211.88,211.88 211.88,254.26" fill="#dcad69"/><rect x="211.88" y="211.88" width="42.38" height="42.38" fill="#395164"/><path d="M 211.88 211.88 A 42.38 42.38 0 0 0 254.26 254.26 L 254.26 211.88" fill="#857962"/><rect x="254.25" y="211.88" width="42.38" height="42.38" fill="#746266"/><polygon points="296.63,211.88 296.63,254.26 254.25,254.26" fill="#2e445c"/><rect x="296.63" y="211.88" width="42.38" height="42.38" fill="#a8b7bb"/><path d="M 296.63 254.26 A 42.38 42.38 0 0 1  339.01 211.88 L 296.63 254.26 A 42.38 42.38 0 0 0 339.01 211.88" fill="#8f7f63"/><rect x="339" y="211.88" width="42.38" height="42.38" fill="#cf8a74"/><path d="M 339 254.26 A 42.38 42.38 0 0 0 381.38 211.88 L 339 211.88" fill="#4b6074"/><rect x="381.38" y="211.88" width="42.38" height="42.38" fill="#9dadb2"/><polygon points="381.38,211.88 423.76,254.26 381.38,254.26" fill="#3f546a"/><rect x="423.75" y="211.88" width="42.38" height="42.38" fill="#506b74"/><polygon points="423.75,211.88 466.13,211.88 423.75,254.26" fill="#3d5268"/><rect x="466.13" y="211.88" width="42.38" height="42.38" fill="#767061"/><polygon points="466.13,211.88 508.51,211.88 508.51,254.26" fill="#70828f"/><rect x="508.5" y="211.88" width="42.38" height="42.38" fill="#5c7080"/><path d="M 508.5 254.26 A 42.38 42.38 0 0 1  550.88 211.88 L 508.5 254.26 A 42.38 42.38 0 0 0 550.88 211.88" fill="#3b5167"/><rect x="550.88" y="211.88" width="42.38" height="42.38" fill="#5f7d7e"/><rect x="550.88" y="211.88" width="42.38" height="42.38" fill="#3d5268"/><rect x="593.25" y="211.88" width="42.38" height="42.38" fill="#627f80"/><path d="M 593.25 254.26 A 42.38 42.38 0 0 0 635.63 211.88 L 593.25 211.88" fill="#516577"/><rect x="635.63" y="211.88" width="42.38" height="42.38" fill="#5c5f5f"/><rect x="635.63" y="211.88" width="42.38" height="42.38" fill="#575562"/><rect x="0" y="254.25" width="42.38" height="42.38" fill="#687b89"/><polygon points="0,254.25 42.38,254.25 42.38,296.63" fill="#494f5f"/><rect x="42.38" y="254.25" width="42.38" height="42.38" fill="#354d61"/><path d="M 42.38 296.63 A 42.38 42.38 0 0 0 84.76 254.25 L 42.38 254.25" fill="#647788"/><rect x="84.75" y="254.25" width="42.38" height="42.38" fill="#eab66a"/><path d="M 84.75 296.63 A 42.38 42.38 0 0 1  127.13 254.25 L 127.13 296.63" fill="#7f6768"/><rect x="127.13" y="254.25" width="42.38" height="42.38" fill="#5f7c7e"/><polygon points="127.13,254.25 169.51,254.25 127.13,296.63" fill="#5e7c7e"/><rect x="169.5" y="254.25" width="42.38" height="42.38" fill="#caa267"/><path d="M 169.5 254.25 A 42.38 42.38 0 0 0 211.88 296.63 L 211.88 254.25" fill="#617f80"/><rect x="211.88" y="254.25" width="42.38" height="42.38" fill="#f89c7b"/><path d="M 211.88 254.25 A 42.38 42.38 0 0 1 254.26 296.63 L 211.88 296.63" fill="#827762"/><rect x="254.25" y="254.25" width="42.38" height="42.38" fill="#2d435b"/><path d="M 254.25 254.25 A 42.38 42.38 0 0 1  296.63 296.63 L 254.25 254.25 A 42.38 42.38 0 0 0 296.63 296.63" fill="#435c6a"/><rect x="296.63" y="254.25" width="42.38" height="42.38" fill="#645b64"/><polygon points="339.01,254.25 339.01,296.63 296.63,296.63" fill="#3e5369"/><rect x="339" y="254.25" width="42.38" height="42.38" fill="#718493"/><path d="M 339 296.63 A 42.38 42.38 0 0 1  381.38 254.25 L 381.38 296.63" fill="#2f465d"/><rect x="381.38" y="254.25" width="42.38" height="42.38" fill="#5d7a7d"/><rect x="381.38" y="254.25" width="42.38" height="42.38" fill="#7f6768"/><rect x="423.75" y="254.25" width="42.38" height="42.38" fill="#374e62"/><path d="M 423.75 254.25 A 42.38 42.38 0 0 1 466.13 296.63 L 423.75 296.63" fill="#998564"/><rect x="466.13" y="254.25" width="42.38" height="42.38" fill="#c19d67"/><polygon points="466.13,254.25 508.51,254.25 508.51,296.63" fill="#384d63"/><rect x="508.5" y="254.25" width="42.38" height="42.38" fill="#3f556a"/><path d="M 508.5 254.25 A 42.38 42.38 0 0 1  550.88 296.63 L 508.5 254.25 A 42.38 42.38 0 0 0 550.88 296.63" fill="#6e6b60"/><rect x="550.88" y="254.25" width="42.38" height="42.38" fill="#465b6e"/><polygon points="593.26,254.25 593.26,296.63 550.88,296.63" fill="#3b5166"/><rect x="593.25" y="254.25" width="42.38" height="42.38" fill="#3b5365"/><rect x="593.25" y="254.25" width="42.38" height="42.38" fill="#3b5365"/><rect x="635.63" y="254.25" width="42.38" height="42.38" fill="#836968"/><polygon points="635.63,254.25 678.01,254.25 678.01,296.63" fill="#374d63"/><rect x="0" y="296.63" width="42.38" height="42.38" fill="#8395a2"/><path d="M 0 296.63 A 42.38 42.38 0 0 1 42.38 339.01 L 0 339.01" fill="#455a6f"/><rect x="42.38" y="296.63" width="42.38" height="42.38" fill="#d6aa68"/><path d="M 42.38 339.01 A 42.38 42.38 0 0 0 84.76 296.63 L 42.38 296.63" fill="#8597a3"/><rect x="84.75" y="296.63" width="42.38" height="42.38" fill="#43586c"/><rect x="84.75" y="296.63" width="42.38" height="42.38" fill="#495e72"/><rect x="127.13" y="296.63" width="42.38" height="42.38" fill="#6d5f65"/><polygon points="127.13,296.63 169.51,296.63 127.13,339.01" fill="#e09177"/><rect x="169.5" y="296.63" width="42.38" height="42.38" fill="#a58c65"/><rect x="169.5" y="296.63" width="42.38" height="42.38" fill="#3f5469"/><rect x="211.88" y="296.63" width="42.38" height="42.38" fill="#3c5566"/><rect x="211.88" y="296.63" width="42.38" height="42.38" fill="#897b62"/><rect x="254.25" y="296.63" width="42.38" height="42.38" fill="#a3b3b7"/><polygon points="254.25,296.63 296.63,296.63 296.63,339.01" fill="#b89866"/><rect x="296.63" y="296.63" width="42.38" height="42.38" fill="#b27d70"/><polygon points="296.63,296.63 339.01,296.63 339.01,339.01" fill="#59757a"/><rect x="339" y="296.63" width="42.38" height="42.38" fill="#425b6a"/><rect x="339" y="296.63" width="42.38" height="42.38" fill="#4e575e"/><rect x="381.38" y="296.63" width="42.38" height="42.38" fill="#80929c"/><rect x="381.38" y="296.63" width="42.38" height="42.38" fill="#3e5667"/><rect x="423.75" y="296.63" width="42.38" height="42.38" fill="#2f455c"/><polygon points="466.13,296.63 466.13,339.01 423.75,339.01" fill="#354c60"/><rect x="466.13" y="296.63" width="42.38" height="42.38" fill="#738694"/><path d="M 466.13 296.63 A 42.38 42.38 0 0 0 508.51 339.01 L 508.51 296.63" fill="#384d64"/><rect x="508.5" y="296.63" width="42.38" height="42.38" fill="#777061"/><rect x="508.5" y="296.63" width="42.38" height="42.38" fill="#a2b2b6"/><rect x="550.88" y="296.63" width="42.38" height="42.38" fill="#ed9779"/><path d="M 550.88 339.01 A 42.38 42.38 0 0 0 593.26 296.63 L 550.88 296.63" fill="#4e6973"/><rect x="593.25" y="296.63" width="42.38" height="42.38" fill="#46606d"/><rect x="593.25" y="296.63" width="42.38" height="42.38" fill="#c38573"/><rect x="635.63" y="296.63" width="42.38" height="42.38" fill="#c6a067"/><polygon points="635.63,296.63 678.01,296.63 635.63,339.01" fill="#5f7d7e"/><rect x="0" y="339" width="42.38" height="42.38" fill="#3b5365"/><polygon points="42.38,339 42.38,381.38 0,381.38" fill="#638181"/><rect x="42.38" y="339" width="42.38" height="42.38" fill="#4a555d"/><polygon points="42.38,339 84.76,339 42.38,381.38" fill="#4a5e73"/><rect x="84.75" y="339" width="42.38" height="42.38" fill="#628081"/><path d="M 84.75 339 A 42.38 42.38 0 0 1 127.13 381.38 L 84.75 381.38" fill="#ce8a74"/><rect x="127.13" y="339" width="42.38" height="42.38" fill="#5f7282"/><rect x="127.13" y="339" width="42.38" height="42.38" fill="#5d7181"/><rect x="169.5" y="339" width="42.38" height="42.38" fill="#5e615f"/><path d="M 169.5 381.38 A 42.38 42.38 0 0 0 211.88 339 L 169.5 339" fill="#de9177"/><rect x="211.88" y="339" width="42.38" height="42.38" fill="#61635f"/><polygon points="211.88,339 254.26,339 254.26,381.38" fill="#2f455c"/><rect x="254.25" y="339" width="42.38" height="42.38" fill="#364c62"/><rect x="254.25" y="339" width="42.38" height="42.38" fill="#617f80"/><rect x="296.63" y="339" width="42.38" height="42.38" fill="#647888"/><path d="M 296.63 381.38 A 42.38 42.38 0 0 0 339.01 339 L 296.63 339" fill="#516c74"/><rect x="339" y="339" width="42.38" height="42.38" fill="#3c5167"/><polygon points="339,339 381.38,339 339,381.38" fill="#37495c"/><rect x="381.38" y="339" width="42.38" height="42.38" fill="#adbcbf"/><rect x="381.38" y="339" width="42.38" height="42.38" fill="#6c7f8d"/><rect x="423.75" y="339" width="42.38" height="42.38" fill="#c38573"/><rect x="423.75" y="339" width="42.38" height="42.38" fill="#ac7b6f"/><rect x="466.13" y="339" width="42.38" height="42.38" fill="#c39e67"/><polygon points="466.13,339 508.51,339 508.51,381.38" fill="#7b8d9b"/><rect x="508.5" y="339" width="42.38" height="42.38" fill="#364d61"/><polygon points="508.5,339 550.88,381.38 508.5,381.38" fill="#516c74"/><rect x="550.88" y="339" width="42.38" height="42.38" fill="#8e7e63"/><polygon points="550.88,339 593.26,381.38 550.88,381.38" fill="#585d5e"/><rect x="593.25" y="339" width="42.38" height="42.38" fill="#2e445b"/><path d="M 593.25 381.38 A 42.38 42.38 0 0 0 635.63 339 L 593.25 339" fill="#758796"/><rect x="635.63" y="339" width="42.38" height="42.38" fill="#495e71"/><path d="M 635.63 339 A 42.38 42.38 0 0 0 678.01 381.38 L 678.01 339" fill="#798c9a"/><rect x="0" y="381.38" width="42.38" height="42.38" fill="#48626e"/><rect x="0" y="381.38" width="42.38" height="42.38" fill="#8d7d63"/><rect x="42.38" y="381.38" width="42.38" height="42.38" fill="#6b7e8c"/><rect x="42.38" y="381.38" width="42.38" height="42.38" fill="#8798a1"/><rect x="84.75" y="381.38" width="42.38" height="42.38" fill="#738694"/><polygon points="84.75,381.38 127.13,381.38 84.75,423.76" fill="#465f6c"/><rect x="127.13" y="381.38" width="42.38" height="42.38" fill="#6c7f8c"/><rect x="127.13" y="381.38" width="42.38" height="42.38" fill="#42576b"/><rect x="169.5" y="381.38" width="42.38" height="42.38" fill="#5e7283"/><rect x="169.5" y="381.38" width="42.38" height="42.38" fill="#374c63"/><rect x="211.88" y="381.38" width="42.38" height="42.38" fill="#43505d"/><polygon points="211.88,381.38 254.26,381.38 254.26,423.76" fill="#394e64"/><rect x="254.25" y="381.38" width="42.38" height="42.38" fill="#d48c75"/><polygon points="254.25,381.38 296.63,423.76 254.25,423.76" fill="#5e7b7d"/><rect x="296.63" y="381.38" width="42.38" height="42.38" fill="#3a5066"/><rect x="296.63" y="381.38" width="42.38" height="42.38" fill="#8c9da5"/><rect x="339" y="381.38" width="42.38" height="42.38" fill="#2f465d"/><rect x="339" y="381.38" width="42.38" height="42.38" fill="#ec9779"/><rect x="381.38" y="381.38" width="42.38" height="42.38" fill="#3e5767"/><path d="M 381.38 381.38 A 42.38 42.38 0 0 1 423.76 423.76 L 381.38 423.76" fill="#4f6a73"/><rect x="423.75" y="381.38" width="42.38" height="42.38" fill="#3c5166"/><rect x="423.75" y="381.38" width="42.38" height="42.38" fill="#886b69"/><rect x="466.13" y="381.38" width="42.38" height="42.38" fill="#2f455d"/><rect x="466.13" y="381.38" width="42.38" height="42.38" fill="#566a7c"/><rect x="508.5" y="381.38" width="42.38" height="42.38" fill="#9babb1"/><polygon points="508.5,381.38 550.88,381.38 508.5,423.76" fill="#cca468"/><rect x="550.88" y="381.38" width="42.38" height="42.38" fill="#4e575e"/><rect x="550.88" y="381.38" width="42.38" height="42.38" fill="#5c7080"/><rect x="593.25" y="381.38" width="42.38" height="42.38" fill="#535461"/><path d="M 593.25 381.38 A 42.38 42.38 0 0 1  635.63 423.76 L 593.25 381.38 A 42.38 42.38 0 0 0 635.63 423.76" fill="#99a9af"/><rect x="635.63" y="381.38" width="42.38" height="42.38" fill="#b07c70"/><polygon points="635.63,381.38 678.01,423.76 635.63,423.76" fill="#5e7283"/><rect x="0" y="423.75" width="42.38" height="42.38" fill="#6b6960"/><rect x="0" y="423.75" width="42.38" height="42.38" fill="#3c4c5c"/><rect x="42.38" y="423.75" width="42.38" height="42.38" fill="#f89c7b"/><polygon points="42.38,423.75 84.76,423.75 84.76,466.13" fill="#d4a968"/><rect x="84.75" y="423.75" width="42.38" height="42.38" fill="#8496a2"/><polygon points="84.75,423.75 127.13,423.75 84.75,466.13" fill="#2d435b"/><rect x="127.13" y="423.75" width="42.38" height="42.38" fill="#7a7261"/><polygon points="127.13,423.75 169.51,423.75 169.51,466.13" fill="#b4c3c5"/><rect x="169.5" y="423.75" width="42.38" height="42.38" fill="#776467"/><path d="M 169.5 423.75 A 42.38 42.38 0 0 1  211.88 466.13 L 169.5 423.75 A 42.38 42.38 0 0 0 211.88 466.13" fill="#708391"/><rect x="211.88" y="423.75" width="42.38" height="42.38" fill="#32485f"/><path d="M 211.88 466.13 A 42.38 42.38 0 0 1  254.26 423.75 L 211.88 466.13 A 42.38 42.38 0 0 0 254.26 423.75" fill="#ec9779"/><rect x="254.25" y="423.75" width="42.38" height="42.38" fill="#f1997a"/><polygon points="296.63,423.75 296.63,466.13 254.25,466.13" fill="#354b62"/><rect x="296.63" y="423.75" width="42.38" height="42.38" fill="#b3c2c4"/><rect x="296.63" y="423.75" width="42.38" height="42.38" fill="#e99579"/><rect x="339" y="423.75" width="42.38" height="42.38" fill="#374f62"/><path d="M 339 466.13 A 42.38 42.38 0 0 1  381.38 423.75 L 339 466.13 A 42.38 42.38 0 0 0 381.38 423.75" fill="#576a7c"/><rect x="381.38" y="423.75" width="42.38" height="42.38" fill="#4c6771"/><polygon points="381.38,423.75 423.76,466.13 381.38,466.13" fill="#85969f"/><rect x="423.75" y="423.75" width="42.38" height="42.38" fill="#5d7182"/><rect x="423.75" y="423.75" width="42.38" height="42.38" fill="#9fafb4"/><rect x="466.13" y="423.75" width="42.38" height="42.38" fill="#3e4d5c"/><polygon points="466.13,423.75 508.51,423.75 508.51,466.13" fill="#bb9966"/><rect x="508.5" y="423.75" width="42.38" height="42.38" fill="#31465e"/><path d="M 508.5 466.13 A 42.38 42.38 0 0 1  550.88 423.75 L 508.5 466.13 A 42.38 42.38 0 0 0 550.88 423.75" fill="#638181"/><rect x="550.88" y="423.75" width="42.38" height="42.38" fill="#40556a"/><path d="M 550.88 466.13 A 42.38 42.38 0 0 1  593.26 423.75 L 593.26 466.13" fill="#9c8664"/><rect x="593.25" y="423.75" width="42.38" height="42.38" fill="#4f5260"/><path d="M 593.25 423.75 A 42.38 42.38 0 0 1  635.63 466.13 L 593.25 423.75 A 42.38 42.38 0 0 0 635.63 466.13" fill="#516d75"/><rect x="635.63" y="423.75" width="42.38" height="42.38" fill="#768896"/><rect x="635.63" y="423.75" width="42.38" height="42.38" fill="#778995"/><rect x="0" y="466.13" width="42.38" height="42.38" fill="#4b6670"/><path d="M 0 466.13 A 42.38 42.38 0 0 1 42.38 508.51 L 0 508.51" fill="#b47e70"/><rect x="42.38" y="466.13" width="42.38" height="42.38" fill="#9cacb2"/><polygon points="42.38,466.13 84.76,466.13 84.76,508.51" fill="#6d6a60"/><rect x="84.75" y="466.13" width="42.38" height="42.38" fill="#3b5365"/><path d="M 84.75 508.51 A 42.38 42.38 0 0 1  127.13 466.13 L 127.13 508.51" fill="#405968"/><rect x="127.13" y="466.13" width="42.38" height="42.38" fill="#2e445b"/><rect x="127.13" y="466.13" width="42.38" height="42.38" fill="#7a6567"/><rect x="169.5" y="466.13" width="42.38" height="42.38" fill="#4f6377"/><polygon points="169.5,466.13 211.88,508.51 169.5,508.51" fill="#ad9165"/><rect x="211.88" y="466.13" width="42.38" height="42.38" fill="#4b6074"/><rect x="211.88" y="466.13" width="42.38" height="42.38" fill="#e3b269"/><rect x="254.25" y="466.13" width="42.38" height="42.38" fill="#7e909a"/><rect x="254.25" y="466.13" width="42.38" height="42.38" fill="#8c9da5"/><rect x="296.63" y="466.13" width="42.38" height="42.38" fill="#37495c"/><path d="M 296.63 508.51 A 42.38 42.38 0 0 1  339.01 466.13 L 296.63 508.51 A 42.38 42.38 0 0 0 339.01 466.13" fill="#6d7f8d"/><rect x="339" y="466.13" width="42.38" height="42.38" fill="#938163"/><polygon points="381.38,466.13 381.38,508.51 339,508.51" fill="#30465d"/><rect x="381.38" y="466.13" width="42.38" height="42.38" fill="#968363"/><path d="M 381.38 466.13 A 42.38 42.38 0 0 1 423.76 508.51 L 381.38 508.51" fill="#8899a2"/><rect x="423.75" y="466.13" width="42.38" height="42.38" fill="#b5c4c5"/><path d="M 423.75 508.51 A 42.38 42.38 0 0 0 466.13 466.13 L 423.75 466.13" fill="#565c5e"/><rect x="466.13" y="466.13" width="42.38" height="42.38" fill="#5f7384"/><rect x="466.13" y="466.13" width="42.38" height="42.38" fill="#bd9b66"/><rect x="508.5" y="466.13" width="42.38" height="42.38" fill="#778a98"/><polygon points="550.88,466.13 550.88,508.51 508.5,508.51" fill="#7c6567"/><rect x="550.88" y="466.13" width="42.38" height="42.38" fill="#a5b5b9"/><polygon points="550.88,466.13 593.26,466.13 593.26,508.51" fill="#364c63"/><rect x="593.25" y="466.13" width="42.38" height="42.38" fill="#a1b0b5"/><path d="M 593.25 508.51 A 42.38 42.38 0 0 1  635.63 466.13 L 593.25 508.51 A 42.38 42.38 0 0 0 635.63 466.13" fill="#6a7d8d"/><rect x="635.63" y="466.13" width="42.38" height="42.38" fill="#958263"/><path d="M 635.63 466.13 A 42.38 42.38 0 0 1  678.01 508.51 L 635.63 466.13 A 42.38 42.38 0 0 0 678.01 508.51" fill="#6b7d8b"/><rect x="0" y="508.5" width="42.38" height="42.38" fill="#485c71"/><rect x="0" y="508.5" width="42.38" height="42.38" fill="#70828f"/><rect x="42.38" y="508.5" width="42.38" height="42.38" fill="#bd9b66"/><rect x="42.38" y="508.5" width="42.38" height="42.38" fill="#b5c4c5"/><rect x="84.75" y="508.5" width="42.38" height="42.38" fill="#31465e"/><path d="M 84.75 508.5 A 42.38 42.38 0 0 1 127.13 550.88 L 84.75 550.88" fill="#5e7c7e"/><rect x="127.13" y="508.5" width="42.38" height="42.38" fill="#2f455c"/><path d="M 127.13 550.88 A 42.38 42.38 0 0 1  169.51 508.5 L 169.51 550.88" fill="#7d6668"/><rect x="169.5" y="508.5" width="42.38" height="42.38" fill="#80929f"/><rect x="169.5" y="508.5" width="42.38" height="42.38" fill="#516c74"/><rect x="211.88" y="508.5" width="42.38" height="42.38" fill="#32475f"/><polygon points="211.88,508.5 254.26,508.5 254.26,550.88" fill="#2e445c"/><rect x="254.25" y="508.5" width="42.38" height="42.38" fill="#536f76"/><polygon points="254.25,508.5 296.63,508.5 296.63,550.88" fill="#484f5f"/><rect x="296.63" y="508.5" width="42.38" height="42.38" fill="#364c62"/><path d="M 296.63 508.5 A 42.38 42.38 0 0 0 339.01 550.88 L 339.01 508.5" fill="#536779"/><rect x="339" y="508.5" width="42.38" height="42.38" fill="#3f5767"/><polygon points="339,508.5 381.38,550.88 339,550.88" fill="#b69766"/><rect x="381.38" y="508.5" width="42.38" height="42.38" fill="#40556a"/><rect x="381.38" y="508.5" width="42.38" height="42.38" fill="#344a61"/><rect x="423.75" y="508.5" width="42.38" height="42.38" fill="#455a6e"/><path d="M 423.75 508.5 A 42.38 42.38 0 0 1 466.13 550.88 L 423.75 550.88" fill="#f2997a"/><rect x="466.13" y="508.5" width="42.38" height="42.38" fill="#2e445c"/><rect x="466.13" y="508.5" width="42.38" height="42.38" fill="#697d8c"/><rect x="508.5" y="508.5" width="42.38" height="42.38" fill="#ea9679"/><polygon points="508.5,508.5 550.88,508.5 508.5,550.88" fill="#4f6a73"/><rect x="550.88" y="508.5" width="42.38" height="42.38" fill="#a8796e"/><path d="M 550.88 550.88 A 42.38 42.38 0 0 1  593.26 508.5 L 550.88 550.88 A 42.38 42.38 0 0 0 593.26 508.5" fill="#8193a0"/><rect x="593.25" y="508.5" width="42.38" height="42.38" fill="#4d575e"/><polygon points="593.25,508.5 635.63,508.5 635.63,550.88" fill="#8c7d63"/><rect x="635.63" y="508.5" width="42.38" height="42.38" fill="#384d64"/><rect x="635.63" y="508.5" width="42.38" height="42.38" fill="#637687"/><rect x="0" y="550.88" width="42.38" height="42.38" fill="#506578"/><path d="M 0 593.26 A 42.38 42.38 0 0 1  42.38 550.88 L 0 593.26 A 42.38 42.38 0 0 0 42.38 550.88" fill="#9d746d"/><rect x="42.38" y="550.88" width="42.38" height="42.38" fill="#6d5f65"/><polygon points="84.76,550.88 84.76,593.26 42.38,593.26" fill="#3f4e5c"/><rect x="84.75" y="550.88" width="42.38" height="42.38" fill="#39485d"/><rect x="84.75" y="550.88" width="42.38" height="42.38" fill="#c58573"/><rect x="127.13" y="550.88" width="42.38" height="42.38" fill="#3e4d5c"/><rect x="127.13" y="550.88" width="42.38" height="42.38" fill="#506478"/><rect x="169.5" y="550.88" width="42.38" height="42.38" fill="#374c63"/><path d="M 169.5 550.88 A 42.38 42.38 0 0 1  211.88 593.26 L 169.5 550.88 A 42.38 42.38 0 0 0 211.88 593.26" fill="#2f455c"/><rect x="211.88" y="550.88" width="42.38" height="42.38" fill="#5c5862"/><path d="M 211.88 593.26 A 42.38 42.38 0 0 1  254.26 550.88 L 254.26 593.26" fill="#5a5e5f"/><rect x="254.25" y="550.88" width="42.38" height="42.38" fill="#726d60"/><rect x="254.25" y="550.88" width="42.38" height="42.38" fill="#37485d"/><rect x="296.63" y="550.88" width="42.38" height="42.38" fill="#4b6670"/><path d="M 296.63 550.88 A 42.38 42.38 0 0 1 339.01 593.26 L 296.63 593.26" fill="#4c6671"/><rect x="339" y="550.88" width="42.38" height="42.38" fill="#b99866"/><path d="M 339 593.26 A 42.38 42.38 0 0 0 381.38 550.88 L 339 550.88" fill="#526678"/><rect x="381.38" y="550.88" width="42.38" height="42.38" fill="#374f62"/><rect x="381.38" y="550.88" width="42.38" height="42.38" fill="#5f7c7e"/><rect x="423.75" y="550.88" width="42.38" height="42.38" fill="#c38573"/><rect x="423.75" y="550.88" width="42.38" height="42.38" fill="#2e445c"/><rect x="466.13" y="550.88" width="42.38" height="42.38" fill="#635b63"/><rect x="466.13" y="550.88" width="42.38" height="42.38" fill="#706c60"/><rect x="508.5" y="550.88" width="42.38" height="42.38" fill="#3f556a"/><rect x="508.5" y="550.88" width="42.38" height="42.38" fill="#576b7d"/><rect x="550.88" y="550.88" width="42.38" height="42.38" fill="#627586"/><rect x="550.88" y="550.88" width="42.38" height="42.38" fill="#32465b"/><rect x="593.25" y="550.88" width="42.38" height="42.38" fill="#4a5060"/><rect x="593.25" y="550.88" width="42.38" height="42.38" fill="#81939d"/><rect x="635.63" y="550.88" width="42.38" height="42.38" fill="#43505d"/><rect x="635.63" y="550.88" width="42.38" height="42.38" fill="#82939d"/><rect x="0" y="593.25" width="42.38" height="42.38" fill="#6f8291"/><rect x="0" y="593.25" width="42.38" height="42.38" fill="#60625f"/><rect x="42.38" y="593.25" width="42.38" height="42.38" fill="#5a777b"/><path d="M 42.38 635.63 A 42.38 42.38 0 0 1  84.76 593.25 L 42.38 635.63 A 42.38 42.38 0 0 0 84.76 593.25" fill="#42576c"/><rect x="84.75" y="593.25" width="42.38" height="42.38" fill="#395163"/><path d="M 84.75 635.63 A 42.38 42.38 0 0 0 127.13 593.25 L 84.75 593.25" fill="#5d7a7d"/><rect x="127.13" y="593.25" width="42.38" height="42.38" fill="#b07c70"/><rect x="127.13" y="593.25" width="42.38" height="42.38" fill="#576b7d"/><rect x="169.5" y="593.25" width="42.38" height="42.38" fill="#91a2a9"/><polygon points="211.88,593.25 211.88,635.63 169.5,635.63" fill="#4f6a73"/><rect x="211.88" y="593.25" width="42.38" height="42.38" fill="#384e64"/><path d="M 211.88 593.25 A 42.38 42.38 0 0 1  254.26 635.63 L 211.88 593.25 A 42.38 42.38 0 0 0 254.26 635.63" fill="#5c6f81"/><rect x="254.25" y="593.25" width="42.38" height="42.38" fill="#8a9ba3"/><rect x="254.25" y="593.25" width="42.38" height="42.38" fill="#596d7f"/><rect x="296.63" y="593.25" width="42.38" height="42.38" fill="#8294a1"/><path d="M 296.63 635.63 A 42.38 42.38 0 0 1  339.01 593.25 L 339.01 635.63" fill="#405968"/><rect x="339" y="593.25" width="42.38" height="42.38" fill="#4f6a73"/><path d="M 339 593.25 A 42.38 42.38 0 0 0 381.38 635.63 L 381.38 593.25" fill="#59767a"/><rect x="381.38" y="593.25" width="42.38" height="42.38" fill="#aebdc0"/><polygon points="423.76,593.25 423.76,635.63 381.38,635.63" fill="#3e5667"/><rect x="423.75" y="593.25" width="42.38" height="42.38" fill="#617f80"/><polygon points="466.13,593.25 466.13,635.63 423.75,635.63" fill="#43505d"/><rect x="466.13" y="593.25" width="42.38" height="42.38" fill="#566a7c"/><rect x="466.13" y="593.25" width="42.38" height="42.38" fill="#53677a"/><rect x="508.5" y="593.25" width="42.38" height="42.38" fill="#d4a968"/><path d="M 508.5 635.63 A 42.38 42.38 0 0 0 550.88 593.25 L 508.5 593.25" fill="#dc9076"/><rect x="550.88" y="593.25" width="42.38" height="42.38" fill="#cca468"/><rect x="550.88" y="593.25" width="42.38" height="42.38" fill="#becccc"/><rect x="593.25" y="593.25" width="42.38" height="42.38" fill="#3e5667"/><path d="M 593.25 593.25 A 42.38 42.38 0 0 1 635.63 635.63 L 593.25 635.63" fill="#b09365"/><rect x="635.63" y="593.25" width="42.38" height="42.38" fill="#8597a3"/><polygon points="635.63,593.25 678.01,593.25 678.01,635.63" fill="#506b73"/><rect x="0" y="635.63" width="42.38" height="42.38" fill="#384d64"/><rect x="0" y="635.63" width="42.38" height="42.38" fill="#63645f"/><rect x="42.38" y="635.63" width="42.38" height="42.38" fill="#63645f"/><polygon points="84.76,635.63 84.76,678.01 42.38,678.01" fill="#dd9077"/><rect x="84.75" y="635.63" width="42.38" height="42.38" fill="#b79766"/><rect x="84.75" y="635.63" width="42.38" height="42.38" fill="#4b6073"/><rect x="127.13" y="635.63" width="42.38" height="42.38" fill="#3e5767"/><rect x="127.13" y="635.63" width="42.38" height="42.38" fill="#5d7183"/><rect x="169.5" y="635.63" width="42.38" height="42.38" fill="#4e6872"/><rect x="169.5" y="635.63" width="42.38" height="42.38" fill="#ab7a6f"/><rect x="211.88" y="635.63" width="42.38" height="42.38" fill="#32485f"/><polygon points="211.88,635.63 254.26,635.63 254.26,678.01" fill="#7b8e9b"/><rect x="254.25" y="635.63" width="42.38" height="42.38" fill="#5f7d7e"/><rect x="254.25" y="635.63" width="42.38" height="42.38" fill="#3c5466"/><rect x="296.63" y="635.63" width="42.38" height="42.38" fill="#3b4b5c"/><polygon points="296.63,635.63 339.01,635.63 296.63,678.01" fill="#51595e"/><rect x="339" y="635.63" width="42.38" height="42.38" fill="#cc8974"/><polygon points="381.38,635.63 381.38,678.01 339,678.01" fill="#32485e"/><rect x="381.38" y="635.63" width="42.38" height="42.38" fill="#3f5767"/><path d="M 381.38 635.63 A 42.38 42.38 0 0 0 423.76 678.01 L 423.76 635.63" fill="#5b6f81"/><rect x="423.75" y="635.63" width="42.38" height="42.38" fill="#b89866"/><polygon points="423.75,635.63 466.13,635.63 423.75,678.01" fill="#97a7ae"/><rect x="466.13" y="635.63" width="42.38" height="42.38" fill="#fa9d7b"/><rect x="466.13" y="635.63" width="42.38" height="42.38" fill="#5a5762"/><rect x="508.5" y="635.63" width="42.38" height="42.38" fill="#dbad69"/><rect x="508.5" y="635.63" width="42.38" height="42.38" fill="#746266"/><rect x="550.88" y="635.63" width="42.38" height="42.38" fill="#7a6567"/><polygon points="550.88,635.63 593.26,635.63 550.88,678.01" fill="#666660"/><rect x="593.25" y="635.63" width="42.38" height="42.38" fill="#43515d"/><rect x="593.25" y="635.63" width="42.38" height="42.38" fill="#788b98"/><rect x="635.63" y="635.63" width="42.38" height="42.38" fill="#a5b5b9"/><rect x="635.63" y="635.63" width="42.38" height="42.38" fill="#7c7361"/></g></svg>